<svg width="79" height="79" viewBox="0 0 79 79" fill="none" xmlns="http://www.w3.org/2000/svg">
<path d="M39.3965 6.5661C32.9032 6.5661 26.5558 8.49158 21.1568 12.099C15.7579 15.7065 11.5499 20.834 9.06501 26.833C6.58014 32.832 5.92999 39.4331 7.19676 45.8016C8.46354 52.1701 11.5903 58.0199 16.1818 62.6114C20.7732 67.2028 26.6231 70.3296 32.9916 71.5964C39.3601 72.8632 45.9612 72.213 51.9602 69.7282C57.9592 67.2433 63.0866 63.0353 66.6941 57.6363C70.3016 52.2374 72.2271 45.8899 72.2271 39.3967C72.2271 35.0853 71.3779 30.8161 69.728 26.833C68.0781 22.8498 65.6598 19.2306 62.6112 16.182C59.5626 13.1334 55.9434 10.7151 51.9602 9.06518C47.977 7.41529 43.7079 6.5661 39.3965 6.5661Z" fill="#F5BE05"/>
<path d="M39.3965 6.5661C32.9032 6.5661 26.5558 8.49158 21.1568 12.099C15.7579 15.7065 11.5499 20.834 9.06501 26.833C6.58014 32.832 5.92999 39.4331 7.19676 45.8016C8.46354 52.1701 11.5903 58.0199 16.1818 62.6114C20.7732 67.2028 26.6231 70.3296 32.9916 71.5964C39.3601 72.8632 45.9612 72.213 51.9602 69.7282C57.9592 67.2433 63.0866 63.0353 66.6941 57.6363C70.3016 52.2374 72.2271 45.8899 72.2271 39.3967C72.2271 35.0853 71.3779 30.8161 69.728 26.833C68.0781 22.8498 65.6598 19.2306 62.6112 16.182C59.5626 13.1334 55.9434 10.7151 51.9602 9.06518C47.977 7.41529 43.7079 6.5661 39.3965 6.5661Z" fill="black"/>
<path d="M39.3965 6.5661C32.9032 6.5661 26.5558 8.49158 21.1568 12.099C15.7579 15.7065 11.5499 20.834 9.06501 26.833C6.58014 32.832 5.92999 39.4331 7.19676 45.8016C8.46354 52.1701 11.5903 58.0199 16.1818 62.6114C20.7732 67.2028 26.6231 70.3296 32.9916 71.5964C39.3601 72.8632 45.9612 72.213 51.9602 69.7282C57.9592 67.2433 63.0866 63.0353 66.6941 57.6363C70.3016 52.2374 72.2271 45.8899 72.2271 39.3967C72.2271 35.0853 71.3779 30.8161 69.728 26.833C68.0781 22.8498 65.6598 19.2306 62.6112 16.182C59.5626 13.1334 55.9434 10.7151 51.9602 9.06518C47.977 7.41529 43.7079 6.5661 39.3965 6.5661ZM53.5136 31.5502L38.5101 51.2485C38.2042 51.6458 37.8115 51.9678 37.3619 52.1897C36.9123 52.4117 36.4178 52.5277 35.9165 52.5289C35.4178 52.5316 34.9251 52.4206 34.4757 52.2045C34.0263 51.9883 33.632 51.6726 33.3228 51.2813L25.3122 41.071C25.047 40.7304 24.8516 40.3409 24.7369 39.9248C24.6223 39.5087 24.5908 39.074 24.6441 38.6457C24.6975 38.2174 24.8347 37.8037 25.0479 37.4284C25.2611 37.0531 25.5461 36.7235 25.8867 36.4583C26.5746 35.9228 27.447 35.6825 28.3121 35.7903C28.7404 35.8436 29.154 35.9808 29.5293 36.194C29.9046 36.4072 30.2343 36.6923 30.4994 37.0329L35.8508 43.8616L48.2607 27.4463C48.5237 27.1014 48.8521 26.8117 49.2271 26.5937C49.602 26.3757 50.0163 26.2337 50.4461 26.1757C50.876 26.1178 51.313 26.1451 51.7323 26.2561C52.1516 26.3671 52.545 26.5596 52.8899 26.8226C53.2348 27.0856 53.5245 27.4139 53.7425 27.7889C53.9605 28.1638 54.1025 28.5781 54.1605 29.0079C54.2184 29.4378 54.1911 29.8748 54.0801 30.2941C53.9691 30.7134 53.7766 31.1068 53.5136 31.4517V31.5502Z" fill="#F5BE05"/>
</svg>
