<svg width="66" height="67" viewBox="0 0 66 67" fill="none" xmlns="http://www.w3.org/2000/svg">
<path d="M15.4242 7.34625C20.5765 3.90361 26.634 2.0661 32.8306 2.0661C36.945 2.0661 41.0191 2.87649 44.8203 4.451C48.6215 6.02551 52.0753 8.3333 54.9846 11.2426C57.8939 14.1519 60.2017 17.6058 61.7762 21.407C63.3508 25.2082 64.1611 29.2823 64.1611 33.3967C64.1611 39.5933 62.3236 45.6507 58.881 50.803C55.4383 55.9553 50.5452 59.971 44.8203 62.3423C39.0954 64.7137 32.7958 65.3341 26.7183 64.1252C20.6408 62.9163 15.0582 59.9324 10.6765 55.5507C6.29487 51.1691 3.31092 45.5865 2.10202 39.509C0.893126 33.4314 1.51358 27.1319 3.88491 21.407C6.25625 15.6821 10.272 10.7889 15.4242 7.34625Z" fill="#212121" stroke="#C4C4C4" stroke-width="3"/>
</svg>
