<svg width="66" height="67" viewBox="0 0 66 67" fill="none" xmlns="http://www.w3.org/2000/svg">
<path d="M32.8306 0.566101C26.3373 0.566101 19.9899 2.49158 14.5909 6.09905C9.19194 9.70652 4.98396 14.834 2.49909 20.833C0.014225 26.832 -0.63593 33.4331 0.630845 39.8016C1.89762 46.1701 5.02443 52.0199 9.61586 56.6114C14.2073 61.2028 20.0571 64.3296 26.4257 65.5964C32.7942 66.8632 39.3953 66.213 45.3943 63.7282C51.3933 61.2433 56.5207 57.0353 60.1282 51.6363C63.7357 46.2374 65.6611 39.8899 65.6611 33.3967C65.6611 29.0853 64.812 24.8161 63.1621 20.833C61.5122 16.8498 59.0939 13.2306 56.0453 10.182C52.9967 7.13335 49.3775 4.71507 45.3943 3.06518C41.4111 1.41529 37.142 0.566101 32.8306 0.566101Z" fill="#F5BE05"/>
</svg>
