<svg width="37" height="37" viewBox="0 0 37 37" fill="none" xmlns="http://www.w3.org/2000/svg">
<path d="M30.5787 0.0964355H6.19288C4.576 0.0964355 3.02535 0.738738 1.88204 1.88204C0.738738 3.02535 0.0964355 4.576 0.0964355 6.19288V30.5787C0.0964355 32.1956 0.738738 33.7462 1.88204 34.8895C3.02535 36.0328 4.576 36.6751 6.19288 36.6751H30.5787C32.1956 36.6751 33.7462 36.0328 34.8895 34.8895C36.0328 33.7462 36.6751 32.1956 36.6751 30.5787V6.19288C36.6751 4.576 36.0328 3.02535 34.8895 1.88204C33.7462 0.738738 32.1956 0.0964355 30.5787 0.0964355ZM27.124 13.5289L17.8371 25.7218C17.6478 25.9678 17.4047 26.167 17.1264 26.3044C16.8481 26.4418 16.542 26.5136 16.2317 26.5144C15.923 26.516 15.618 26.4474 15.3399 26.3136C15.0617 26.1798 14.8177 25.9843 14.6263 25.7422L9.66786 19.4222C9.50374 19.2114 9.38274 18.9703 9.31179 18.7127C9.24084 18.4551 9.22132 18.1861 9.25435 17.9209C9.28737 17.6558 9.37229 17.3998 9.50426 17.1675C9.63623 16.9352 9.81266 16.7311 10.0235 16.567C10.4493 16.2355 10.9893 16.0868 11.5247 16.1535C11.7898 16.1865 12.0459 16.2714 12.2782 16.4034C12.5105 16.5354 12.7145 16.7118 12.8787 16.9226L16.1911 21.1495L23.8726 10.9888C24.0354 10.7753 24.2386 10.5959 24.4707 10.461C24.7028 10.326 24.9592 10.2381 25.2253 10.2023C25.4914 10.1664 25.7619 10.1833 26.0214 10.252C26.281 10.3207 26.5244 10.4399 26.7379 10.6026C26.9514 10.7654 27.1307 10.9687 27.2657 11.2008C27.4006 11.4329 27.4885 11.6893 27.5244 11.9553C27.5602 12.2214 27.5433 12.4919 27.4746 12.7515C27.4059 13.011 27.2868 13.2545 27.124 13.468V13.5289Z" fill="#F5BE05"/>
</svg>
