<svg xmlns="http://www.w3.org/2000/svg" width="18" height="16" fill="none"><path fill="#fff" d="M17.08 9.747a2.281 2.281 0 0 1-2.281 2.28h-6.1l-4.06 3.25a.86.86 0 0 1-1.396-.692v-2.558h-.3a2.28 2.28 0 0 1-2.281-2.28V2.28A2.281 2.281 0 0 1 2.942 0h11.852a2.281 2.281 0 0 1 2.28 2.28l.006 7.467Zm-3.14-8.03H3.808A1.422 1.422 0 0 0 2.386 3.14v5.748a1.422 1.422 0 0 0 1.422 1.421h.3a.858.858 0 0 1 .859.86v1.649l2.9-2.32a.861.861 0 0 1 .537-.188h5.54a1.421 1.421 0 0 0 1.422-1.422v-5.75a1.425 1.425 0 0 0-1.426-1.42Z"/></svg>