<svg width="108" height="11" viewBox="0 0 108 11" fill="none" xmlns="http://www.w3.org/2000/svg">
<path d="M104.228 0.09375V0.506836H103.072V2.8208H102.661V0.506836H101.506V0.09375H104.228Z" fill="white"/>
<path d="M107.057 0.09375H107.557V2.8208H107.151V0.642822L106.014 1.99487L104.886 0.642822V2.8208H104.47V0.09375H104.956L106.014 1.35278L107.057 0.09375Z" fill="white"/>
<path d="M98.775 0.09375H90.594V2.82075H98.775V0.09375Z" fill="#BDBEBF"/>
<path d="M96.048 4.18359H93.321V11.0006H96.048V4.18359Z" fill="#BDBEBF"/>
<path d="M86.218 2.81982V0.09375H78.0371V11.0007H86.218V8.27466H80.7642V6.91187H84.854V4.18384H80.7642V2.81982H86.218Z" fill="white"/>
<path d="M48.5598 2.81982V0.09375H40.3789V6.91089H45.833V8.27368H40.3789V10.9998H48.5598V4.18286H43.106V2.81885L48.5598 2.81982Z" fill="white"/>
<path d="M58.385 0.09375H52.9319V11.0007H55.658V6.91089H58.385V11.0007H61.1121V0.09375H58.385ZM58.385 4.18384H55.658V2.8208H58.385V4.18384Z" fill="white"/>
<path d="M68.2131 2.81982H73.667V0.09375H65.4871V11.0007H73.667V4.18384H70.939V8.27466H68.2131V2.81982Z" fill="white"/>
<path d="M36.0051 2.81982V0.09375H27.8252V6.91089H33.2791V8.27368H27.8252V10.9998H36.0051V4.18286H30.551V2.81885L36.0051 2.81982Z" fill="white"/>
<path d="M23.4502 2.81982V0.09375H15.27V11.0007H23.4502V8.27466H17.9961V6.91187H22.0872V4.18384H17.9961V2.81982H23.4502Z" fill="white"/>
<path d="M8.18115 0.09375L5.4541 2.81982L2.72705 0.09375H0V11.0007H2.72705V4.18384L5.4541 6.91187L8.18115 4.18384V11.0007H10.9089V0.09375H8.18115Z" fill="white"/>
</svg>
