<svg width="19" height="16" viewBox="0 0 19 16" fill="none" xmlns="http://www.w3.org/2000/svg">
<path d="M9.37514 15.9539C9.12843 15.954 8.89178 15.8561 8.71715 15.6818L1.20714 8.16785C1.19714 8.15785 1.18714 8.14786 1.17714 8.13586C0.395547 7.25756 -0.0232352 6.11512 0.00554085 4.93976C0.0343169 3.76439 0.508502 2.64388 1.33214 1.80487C2.17601 0.961251 3.32039 0.487305 4.51363 0.487305C5.70687 0.487305 6.85127 0.961251 7.69515 1.80487L9.44115 3.54987L11.1861 1.80487C12.03 0.961251 13.1744 0.487305 14.3676 0.487305C15.5609 0.487305 16.7053 0.961251 17.5492 1.80487C17.9683 2.22156 18.3006 2.71728 18.5269 3.26331C18.7531 3.80934 18.8688 4.3948 18.8671 4.98584C18.8688 5.57704 18.7532 6.16272 18.527 6.70892C18.3008 7.25513 17.9684 7.751 17.5492 8.16785L10.0361 15.6818C9.94929 15.7684 9.84617 15.8371 9.73274 15.8837C9.61932 15.9304 9.4978 15.9542 9.37514 15.9539ZM2.53615 6.86884L9.37514 13.7089L16.2311 6.85284C16.477 6.6084 16.6719 6.31762 16.8046 5.99731C16.9373 5.67701 17.0051 5.33352 17.0041 4.98682C17.0051 4.64012 16.9373 4.29668 16.8046 3.97638C16.6719 3.65607 16.477 3.3653 16.2311 3.12085C15.7358 2.62671 15.0648 2.34918 14.3651 2.34918C13.6655 2.34918 12.9944 2.62671 12.4991 3.12085L10.7541 4.86584L11.9111 6.02386C12.0855 6.19826 12.1834 6.43474 12.1834 6.68134C12.1834 6.92793 12.0855 7.16447 11.9111 7.33887C11.7367 7.51321 11.5002 7.61115 11.2536 7.61115C11.0071 7.61115 10.7705 7.51321 10.5961 7.33887L9.43913 6.18182L8.27614 7.34485C8.18977 7.43132 8.0872 7.49995 7.97429 7.54675C7.86139 7.59356 7.74037 7.61761 7.61815 7.61761C7.49593 7.61761 7.37489 7.59356 7.26198 7.54675C7.14908 7.49995 7.0465 7.43132 6.96013 7.34485C6.87366 7.25848 6.80506 7.15587 6.75826 7.04297C6.71145 6.93006 6.68736 6.80905 6.68736 6.68683C6.68736 6.56461 6.71145 6.44359 6.75826 6.33069C6.80506 6.21778 6.87366 6.11524 6.96013 6.02887L8.12313 4.86584L6.37715 3.12085C5.88186 2.62671 5.21076 2.34918 4.51113 2.34918C3.81149 2.34918 3.14042 2.62671 2.64513 3.12085C2.15796 3.61665 1.87606 4.27816 1.85585 4.97296C1.83564 5.66776 2.07863 6.34555 2.53615 6.86884Z" fill="black"/>
</svg>
