<svg width="22" height="23" viewBox="0 0 22 23" fill="none" xmlns="http://www.w3.org/2000/svg">
<path d="M11 0.995972C8.08359 0.999148 5.28754 2.15909 3.22533 4.2213C1.16311 6.28351 0.00317634 9.07957 0 11.996C0.00317634 14.9124 1.16311 17.7084 3.22533 19.7706C5.28754 21.8328 8.08359 22.9928 11 22.996C13.9164 22.9928 16.7125 21.8328 18.7747 19.7706C20.8369 17.7084 21.9968 14.9124 22 11.996C21.9968 9.07957 20.8369 6.28351 18.7747 4.2213C16.7125 2.15909 13.9164 0.999148 11 0.995972ZM11 22.54C8.20453 22.5368 5.52446 21.4249 3.54777 19.4482C1.57107 17.4715 0.45917 14.7914 0.455994 11.996C0.460228 9.2012 1.5726 6.52216 3.54918 4.54633C5.52576 2.57049 8.20522 1.45914 11 1.45596C13.7948 1.45914 16.4742 2.57049 18.4508 4.54633C20.4274 6.52216 21.5398 9.2012 21.544 11.996C21.5419 14.7921 20.4304 17.4732 18.4536 19.4508C16.4768 21.4283 13.7962 22.5408 11 22.544V22.54Z" fill="white"/>
<path d="M16.5349 7.901C14.6961 7.70825 12.8477 7.62144 10.9989 7.64101C9.15012 7.62143 7.30173 7.70823 5.46291 7.901C5.17643 7.95954 4.91017 8.09181 4.69042 8.28472C4.47068 8.47763 4.30506 8.72452 4.20992 9.00101C4.00458 9.98766 3.90402 10.9932 3.90991 12.001C3.90403 13.0088 4.00459 14.0144 4.20992 15.001C4.30506 15.2775 4.47068 15.5244 4.69042 15.7173C4.91017 15.9102 5.17643 16.0425 5.46291 16.101C7.30172 16.294 9.15011 16.3808 10.9989 16.361C12.8477 16.3808 14.6961 16.2939 16.5349 16.101C16.8214 16.0425 17.0877 15.9102 17.3074 15.7173C17.5271 15.5244 17.6928 15.2775 17.7879 15.001C17.9934 14.0144 18.094 13.0088 18.0879 12.001C18.094 10.9932 17.9934 9.98763 17.7879 9.00101C17.6928 8.72452 17.5271 8.47763 17.3074 8.28472C17.0877 8.09181 16.8214 7.95954 16.5349 7.901ZM9.54991 13.84V10.16L13.2499 12L9.54991 13.84Z" fill="white"/>
</svg>
