<svg width="22" height="22" viewBox="0 0 22 22" fill="none" xmlns="http://www.w3.org/2000/svg">
<path d="M11 0C8.08367 0.00344047 5.28778 1.16348 3.22562 3.22563C1.16347 5.28779 0.00344047 8.08367 0 11C0.00344047 13.9163 1.16347 16.7122 3.22562 18.7744C5.28778 20.8365 8.08367 21.9966 11 22C13.9164 21.9968 16.7125 20.8369 18.7747 18.7747C20.8369 16.7125 21.9968 13.9164 22 11C21.9968 8.08359 20.8369 5.28755 18.7747 3.22534C16.7125 1.16313 13.9164 0.00317634 11 0ZM11 21.544C8.20436 21.5411 5.52404 20.4293 3.54713 18.4526C1.57022 16.4759 0.458171 13.7956 0.454994 11C0.458435 8.20444 1.57056 5.52438 3.54742 3.54771C5.52427 1.57105 8.20444 0.459184 11 0.456009C13.7956 0.45945 16.4756 1.57156 18.4523 3.54842C20.429 5.52527 21.5408 8.20545 21.544 11.001C21.5406 13.7963 20.4285 16.4761 18.4519 18.4526C16.4752 20.4291 13.7953 21.5408 11 21.544Z" fill="white"/>
<path d="M11.902 15.133C11.7188 15.011 11.583 14.8299 11.517 14.62C11.4262 14.1413 11.3926 13.6536 11.417 13.167V9.83299H14.081V7.78999H11.417V4.48999H9.82795C9.78071 5.05879 9.64858 5.61731 9.43595 6.14699C9.25831 6.56379 9.00235 6.94263 8.68195 7.26299C8.36048 7.57759 7.97606 7.82059 7.55396 7.976V9.83299H8.78195V14.395C8.76458 14.8543 8.8189 15.3135 8.94296 15.756C9.06553 16.0918 9.26362 16.3949 9.52195 16.642C9.80846 16.925 10.1521 17.1436 10.53 17.283C10.9654 17.4403 11.426 17.5165 11.889 17.508C12.314 17.5112 12.7377 17.4584 13.149 17.351C13.602 17.2184 14.0383 17.0338 14.449 16.801V14.753C13.9715 15.1504 13.3749 15.3768 12.754 15.396C12.4494 15.4 12.1513 15.308 11.902 15.133Z" fill="white"/>
</svg>
