<svg width="20" height="19" viewBox="0 0 20 19" fill="none" xmlns="http://www.w3.org/2000/svg">
<path d="M6.20657 0.137074C5.4376 0.153768 4.67707 0.301206 3.95757 0.573074C3.34231 0.812205 2.78379 1.17723 2.31781 1.64477C1.85183 2.1123 1.48865 2.67202 1.25157 3.28807C0.98313 4.00891 0.838754 4.77001 0.824568 5.53907C0.781568 6.52807 0.771568 6.83907 0.776568 9.36107C0.781568 11.8831 0.792568 12.1941 0.839568 13.1831C0.856668 13.952 1.00409 14.7125 1.27557 15.4321C1.51481 16.0474 1.87999 16.606 2.3477 17.072C2.81541 17.538 3.37533 17.9011 3.99157 18.1381C4.71235 18.4067 5.47348 18.5511 6.24257 18.5651C7.23157 18.6091 7.54257 18.6181 10.0636 18.6131C12.5846 18.6081 12.8976 18.5971 13.8856 18.5501C14.6544 18.533 15.4148 18.3859 16.1346 18.1151C16.75 17.8759 17.3086 17.5108 17.7746 17.0431C18.2406 16.5753 18.6037 16.0154 18.8406 15.3991C19.1093 14.6787 19.2537 13.9178 19.2676 13.1491C19.3106 12.1601 19.3206 11.8441 19.3166 9.32707C19.3126 6.81007 19.3006 6.49407 19.2536 5.50607C19.2368 4.7372 19.0897 3.97675 18.8186 3.25707C18.5795 2.64159 18.2144 2.0829 17.7467 1.61689C17.279 1.15087 16.7189 0.787827 16.1026 0.551074C15.3819 0.282112 14.6207 0.137719 13.8516 0.124074C12.8626 0.0800742 12.5516 0.0710742 10.0296 0.0750742C7.50757 0.0790742 7.19657 0.0910742 6.20857 0.138074M6.31657 16.8961C5.72878 16.8903 5.14634 16.7837 4.59457 16.5811C4.19439 16.4277 3.83076 16.1922 3.52712 15.8898C3.22347 15.5873 2.98654 15.2246 2.83157 14.8251C2.6265 14.2741 2.51759 13.6919 2.50957 13.1041C2.46357 12.1271 2.45357 11.8341 2.44857 9.35807C2.44357 6.88207 2.44857 6.59007 2.49557 5.61207C2.50131 5.02461 2.60785 4.44249 2.81057 3.89107C2.96378 3.49096 3.1991 3.12737 3.50137 2.82372C3.80364 2.52007 4.16615 2.2831 4.56557 2.12807C5.11622 1.92301 5.69802 1.81409 6.28557 1.80607C7.26357 1.76007 7.55657 1.75007 10.0306 1.74507C12.5046 1.74007 12.7986 1.74507 13.7766 1.79207C14.3641 1.79755 14.9462 1.90411 15.4976 2.10707C15.8979 2.26033 16.2618 2.49577 16.5656 2.79822C16.8694 3.10066 17.1065 3.46341 17.2616 3.86307C17.4669 4.41367 17.5758 4.99551 17.5836 5.58307C17.6306 6.56107 17.6406 6.85407 17.6456 9.32907C17.6506 11.8041 17.6456 12.0971 17.5986 13.0751C17.5928 13.6629 17.4863 14.2453 17.2836 14.7971C17.13 15.1973 16.8943 15.5609 16.5917 15.8646C16.2891 16.1682 15.9263 16.4051 15.5266 16.5601C14.9759 16.765 14.3941 16.874 13.8066 16.8821C12.8286 16.9281 12.5356 16.9381 10.0606 16.9431C7.58557 16.9481 7.29257 16.9431 6.31557 16.8961M13.8756 4.38807C13.8762 4.60809 13.942 4.82299 14.0648 5.00556C14.1876 5.18814 14.3617 5.3302 14.5653 5.41375C14.7688 5.49731 14.9925 5.51861 15.2082 5.47496C15.4238 5.43131 15.6217 5.32467 15.7767 5.16853C15.9317 5.01239 16.0369 4.81378 16.079 4.59783C16.1211 4.38188 16.0982 4.15829 16.0132 3.95536C15.9282 3.75244 15.7849 3.57929 15.6014 3.45784C15.4179 3.33639 15.2026 3.27209 14.9826 3.27307C14.688 3.2744 14.406 3.39255 14.1984 3.6016C13.9909 3.81064 13.8748 4.0935 13.8756 4.38807ZM5.28557 9.35307C5.28735 10.2946 5.56829 11.2144 6.09285 11.9962C6.61741 12.778 7.36203 13.3867 8.23254 13.7453C9.10306 14.1039 10.0604 14.1963 10.9834 14.0108C11.9064 13.8253 12.7537 13.3702 13.4181 12.7032C14.0825 12.0361 14.5342 11.187 14.716 10.2633C14.8978 9.33949 14.8016 8.38257 14.4395 7.51349C14.0774 6.64441 13.4658 5.90223 12.6819 5.38079C11.898 4.85936 10.977 4.5821 10.0356 4.58407C8.77331 4.58672 7.56379 5.09063 6.67302 5.98496C5.78225 6.87929 5.28318 8.09082 5.28557 9.35307ZM6.95557 9.35307C6.95439 8.7421 7.13435 8.14449 7.47272 7.63578C7.81109 7.12706 8.29268 6.73007 8.85662 6.49498C9.42055 6.2599 10.0415 6.19727 10.641 6.31501C11.2406 6.43275 11.7917 6.72558 12.2249 7.15648C12.658 7.58739 12.9537 8.13703 13.0745 8.73593C13.1954 9.33483 13.1359 9.95612 12.9038 10.5213C12.6716 11.0864 12.2771 11.57 11.7702 11.911C11.2632 12.252 10.6665 12.4351 10.0556 12.4371C9.64945 12.4384 9.24705 12.3596 8.87139 12.2053C8.49573 12.051 8.15418 11.8241 7.86626 11.5377C7.57835 11.2513 7.34972 10.9109 7.19346 10.536C7.03719 10.1612 6.95635 9.7592 6.95557 9.35307Z" fill="white"/>
</svg>
