<svg width="25" height="25" viewBox="0 0 25 25" fill="none" xmlns="http://www.w3.org/2000/svg">
<mask id="mask0_137_1509" style="mask-type:luminance" maskUnits="userSpaceOnUse" x="0" y="0" width="25" height="26">
<path d="M25 0.00100708H0V25.001H25V0.00100708Z" fill="white"/>
</mask>
<g mask="url(#mask0_137_1509)">
<path fill-rule="evenodd" clip-rule="evenodd" d="M8.87305 14.494L5.39005 11.014C5.19879 10.8293 5.08387 10.5795 5.06805 10.314C5.06805 10.314 5.02505 9.97701 5.49505 9.54701L8.79505 6.23801C8.94478 6.07205 9.15259 5.97 9.37547 5.953C9.59835 5.93599 9.81924 6.00532 9.99242 6.14664C10.1656 6.28796 10.2778 6.49046 10.3059 6.71222C10.3339 6.93398 10.2756 7.15803 10.143 7.33801L8.04305 9.45301H13.043C13.9485 9.49495 14.838 9.70698 15.665 10.078C16.9604 10.7251 17.9949 11.7966 18.596 13.114C18.8804 13.7866 19.0536 14.5009 19.109 15.229V17.486C19.075 17.6806 18.9785 17.8589 18.8342 17.9938C18.6898 18.1288 18.5055 18.2131 18.309 18.234C18.0907 18.2296 17.8807 18.1496 17.7149 18.0075C17.5491 17.8654 17.4378 17.6701 17.4 17.455V15.496C17.375 14.6696 17.1201 13.8666 16.664 13.177C16.1074 12.3213 15.2696 11.6868 14.295 11.383C13.8982 11.2691 13.4887 11.2046 13.076 11.191H8.05005L10.066 13.22C10.1479 13.3035 10.2122 13.4025 10.2553 13.5111C10.2984 13.6197 10.3194 13.7359 10.3171 13.8528C10.3148 13.9696 10.2891 14.0849 10.2417 14.1917C10.1943 14.2985 10.1261 14.3949 10.041 14.475C9.88093 14.618 9.67472 14.6986 9.46008 14.7021C9.24544 14.7056 9.03672 14.6317 8.87205 14.494" fill="#4B4B4B"/>
<path d="M12.5 25.001C10.0277 25.001 7.61099 24.2679 5.55538 22.8944C3.49976 21.5209 1.89761 19.5686 0.951511 17.2846C0.00541604 15.0005 -0.242126 12.4871 0.24019 10.0624C0.722505 7.63762 1.91301 5.41033 3.66117 3.66218C5.40933 1.91402 7.63661 0.723512 10.0614 0.241197C12.4861 -0.241119 14.9995 0.00642312 17.2835 0.952519C19.5676 1.89861 21.5199 3.50077 22.8934 5.55639C24.2669 7.612 25 10.0287 25 12.501C24.9963 15.8151 23.6782 18.9924 21.3347 21.3358C18.9913 23.6792 15.8141 24.9973 12.5 25.001ZM12.5 1.40101C10.3046 1.40101 8.15856 2.05202 6.33318 3.2717C4.50779 4.49138 3.08508 6.22497 2.24494 8.25323C1.40481 10.2815 1.18499 12.5133 1.61329 14.6665C2.04158 16.8197 3.09876 18.7975 4.65112 20.3499C6.20348 21.9023 8.18131 22.9594 10.3345 23.3877C12.4877 23.816 14.7195 23.5962 16.7478 22.7561C18.7761 21.9159 20.5096 20.4932 21.7293 18.6678C22.949 16.8425 23.6 14.6964 23.6 12.501C23.5968 9.55808 22.4263 6.7366 20.3454 4.65564C18.2644 2.57467 15.4429 1.40419 12.5 1.40101Z" fill="#4B4B4B"/>
</g>
</svg>
