<svg width="20" height="17" viewBox="0 0 20 17" fill="none" xmlns="http://www.w3.org/2000/svg">
<path d="M9.85001 16.6401C9.59088 16.64 9.34234 16.5372 9.159 16.3541L1.26501 8.45905L1.233 8.42609C0.411772 7.50324 -0.0282182 6.3029 0.00204335 5.06793C0.0323048 3.83297 0.530552 2.65556 1.39599 1.77405C2.28317 0.888477 3.48549 0.391113 4.73901 0.391113C5.99253 0.391113 7.19483 0.888477 8.082 1.77405L9.91601 3.60809L11.75 1.77405C12.6372 0.888477 13.8395 0.391113 15.093 0.391113C16.3465 0.391113 17.5488 0.888477 18.436 1.77405C18.8762 2.212 19.2252 2.73284 19.4629 3.30646C19.7006 3.88008 19.8224 4.49516 19.821 5.11609C19.8225 5.73719 19.7008 6.35241 19.4631 6.92621C19.2254 7.50001 18.8763 8.02097 18.436 8.45905L10.542 16.3541C10.3583 16.5373 10.1095 16.6402 9.85001 16.6401ZM2.664 7.09406L9.85001 14.2801L17.05 7.08008C17.3083 6.82317 17.5131 6.51752 17.6525 6.18091C17.7919 5.84429 17.8631 5.48341 17.862 5.11908C17.863 4.75492 17.7917 4.39417 17.6523 4.05774C17.5129 3.72131 17.3082 3.41585 17.05 3.15906C16.5296 2.63994 15.8246 2.34839 15.0895 2.34839C14.3545 2.34839 13.6494 2.63994 13.129 3.15906L11.295 4.99304L12.511 6.20905C12.6018 6.29977 12.6738 6.4075 12.7229 6.52606C12.772 6.64463 12.7973 6.77175 12.7973 6.90009C12.7973 7.02842 12.772 7.15548 12.7229 7.27405C12.6738 7.39261 12.6018 7.50034 12.511 7.59106C12.4203 7.68183 12.3125 7.75385 12.194 7.80298C12.0754 7.85211 11.9483 7.87738 11.82 7.87738C11.6917 7.87738 11.5646 7.85211 11.446 7.80298C11.3274 7.75385 11.2197 7.68183 11.129 7.59106L9.91299 6.37506L8.69101 7.59705C8.60028 7.68782 8.49256 7.75983 8.37399 7.80896C8.25543 7.85809 8.12834 7.88336 8 7.88336C7.87166 7.88336 7.74457 7.85809 7.62601 7.80896C7.50744 7.75983 7.39972 7.68782 7.30899 7.59705C7.12591 7.41368 7.0231 7.16518 7.0231 6.90607C7.0231 6.64695 7.12591 6.39845 7.30899 6.21509L8.531 4.99304L6.69699 3.15906C6.17646 2.64018 5.47148 2.34882 4.73651 2.34882C4.00154 2.34882 3.29653 2.64018 2.776 3.15906C2.26574 3.68059 1.9708 4.37534 1.95004 5.10468C1.92928 5.83401 2.18423 6.54434 2.664 7.09406Z" fill="white"/>
</svg>
