<svg xmlns="http://www.w3.org/2000/svg" width="85" height="12" fill="none"><path fill="#fff" d="M84.904 3.649V.996h-7.96V11.61h7.96V8.956h-5.307V7.629h3.98V4.975h-3.98V3.65h5.307ZM48.254 3.649V.996h-7.961V7.63H45.6v1.327h-5.307v2.654h7.96V4.977h-5.306V3.649h5.307ZM57.816 1H52.51v10.614h2.653v-3.98h2.654v3.98h2.654V1h-2.654Zm0 3.98h-2.654V3.649h2.654V4.98ZM67.384 3.649h5.307V.996H64.73V11.61h7.96V4.976h-2.652v3.98h-2.654V3.649ZM36.038 3.649V.996h-7.96V7.63h5.306v1.327h-5.307v2.654h7.961V4.977H30.73V3.649h5.308ZM23.82 3.649V.996h-7.96V11.61h7.96V8.956h-5.307V7.629h3.98V4.975h-3.98V3.65h5.307ZM8.956 1 6.302 3.653 3.648 1H.994v10.614h2.654V4.98l2.654 2.653L8.956 4.98v6.634h2.654V1H8.956Z"/></svg>