<svg width="22" height="22" viewBox="0 0 22 22" fill="none" xmlns="http://www.w3.org/2000/svg">
<path d="M11 0C8.08367 0.00344047 5.28777 1.16347 3.22562 3.22562C1.16346 5.28778 0.00344047 8.08367 0 11C0.00344047 13.9163 1.16346 16.7122 3.22562 18.7744C5.28777 20.8365 8.08367 21.9966 11 22C13.9163 21.9966 16.7122 20.8365 18.7744 18.7744C20.8365 16.7122 21.9966 13.9163 22 11C21.9966 8.08367 20.8365 5.28778 18.7744 3.22562C16.7122 1.16347 13.9163 0.00344047 11 0ZM11 21.544C8.20505 21.54 5.52576 20.4278 3.54971 18.4512C1.57367 16.4746 0.462174 13.7949 0.459 11C0.461912 8.20419 1.57383 5.52372 3.55077 3.54678C5.52771 1.56984 8.20818 0.457914 11.004 0.455002C13.7996 0.458178 16.4798 1.57022 18.4566 3.54713C20.4333 5.52404 21.5451 8.20436 21.548 11C21.5448 13.7962 20.4324 16.4768 18.4548 18.4536C16.4772 20.4305 13.7962 21.5419 11 21.544Z" fill="white"/>
<path d="M9.41605 6.89195V8.69195H8.10205V10.974H9.41605V17.674H11.943V10.9429H13.706L13.894 8.68895H11.943V7.40595C11.943 6.87495 12.043 6.66395 12.526 6.66395H13.894V4.32495H12.144C10.266 4.32495 9.41605 5.20595 9.41605 6.89195Z" fill="white"/>
</svg>
