<svg width="16" height="16" viewBox="0 0 16 16" fill="none" xmlns="http://www.w3.org/2000/svg">
<path d="M12.7997 15.887H3.06573C2.38243 15.8865 1.72731 15.6148 1.24414 15.1317C0.760974 14.6485 0.489299 13.9933 0.48877 13.31V3.57602C0.489299 2.89272 0.760974 2.23756 1.24414 1.75439C1.72731 1.27123 2.38243 0.999553 3.06573 0.999023H7.07373C7.18654 0.999023 7.29825 1.02124 7.40247 1.06441C7.50668 1.10758 7.60139 1.17084 7.68115 1.25061C7.76092 1.33038 7.8242 1.42508 7.86737 1.5293C7.91054 1.63352 7.93274 1.74521 7.93274 1.85802C7.93274 1.97082 7.91054 2.08252 7.86737 2.18674C7.8242 2.29096 7.76092 2.38566 7.68115 2.46542C7.60139 2.54519 7.50668 2.60846 7.40247 2.65163C7.29825 2.6948 7.18654 2.71703 7.07373 2.71703H3.06573C2.838 2.71729 2.61965 2.80787 2.45862 2.9689C2.29758 3.12994 2.20699 3.34828 2.20673 3.57602V13.31C2.20699 13.5378 2.29758 13.7561 2.45862 13.9171C2.61965 14.0782 2.838 14.1688 3.06573 14.169H12.7997C13.0275 14.1688 13.2458 14.0782 13.4069 13.9171C13.5679 13.7561 13.6585 13.5378 13.6588 13.31V9.30202C13.6588 9.0742 13.7492 8.8557 13.9103 8.69461C14.0714 8.53352 14.2899 8.44302 14.5178 8.44302C14.7456 8.44302 14.9641 8.53352 15.1252 8.69461C15.2863 8.8557 15.3768 9.0742 15.3768 9.30202V13.31C15.3762 13.9933 15.1046 14.6485 14.6214 15.1317C14.1382 15.6148 13.483 15.8865 12.7997 15.887Z" fill="white"/>
<path d="M7.93266 9.30217C7.76288 9.30201 7.59696 9.25155 7.45585 9.15715C7.31474 9.06275 7.20476 8.92865 7.13981 8.77179C7.07486 8.61493 7.05784 8.44234 7.09092 8.27582C7.124 8.10929 7.20569 7.9563 7.32566 7.83617L13.9137 1.25017C14.0748 1.08905 14.2933 0.998535 14.5212 0.998535C14.749 0.998535 14.9675 1.08905 15.1286 1.25017C15.2898 1.41129 15.3803 1.62981 15.3803 1.85767C15.3803 2.08552 15.2898 2.30405 15.1286 2.46516L8.54368 9.05017C8.46362 9.13057 8.36836 9.19426 8.26347 9.23752C8.15858 9.28078 8.04612 9.30276 7.93266 9.30217Z" fill="white"/>
<path d="M14.5167 6.726C14.2889 6.726 14.0705 6.6355 13.9094 6.47441C13.7483 6.31332 13.6577 6.09483 13.6577 5.867V1.85901C13.6577 1.63119 13.7483 1.4127 13.9094 1.2516C14.0705 1.09051 14.2889 1 14.5167 1C14.7445 1 14.9631 1.09051 15.1241 1.2516C15.2852 1.4127 15.3757 1.63119 15.3757 1.85901V5.867C15.3757 6.09483 15.2852 6.31332 15.1241 6.47441C14.9631 6.6355 14.7445 6.726 14.5167 6.726Z" fill="white"/>
<path d="M14.5167 2.718H10.5087C10.2808 2.718 10.0623 2.62749 9.90125 2.4664C9.74015 2.30531 9.64966 2.08683 9.64966 1.85901C9.64966 1.63119 9.74015 1.4127 9.90125 1.2516C10.0623 1.09051 10.2808 1 10.5087 1H14.5167C14.7445 1 14.963 1.09051 15.1241 1.2516C15.2852 1.4127 15.3757 1.63119 15.3757 1.85901C15.3757 2.08683 15.2852 2.30531 15.1241 2.4664C14.963 2.62749 14.7445 2.718 14.5167 2.718Z" fill="white"/>
</svg>
