<svg width="18" height="16" viewBox="0 0 18 16" fill="none" xmlns="http://www.w3.org/2000/svg">
<path d="M17.0801 10.2348C17.0801 10.8398 16.8398 11.4199 16.412 11.8477C15.9842 12.2755 15.4041 12.5158 14.7991 12.5158H8.6991L4.6391 15.7648C4.48661 15.8865 4.29726 15.9528 4.10211 15.9528C3.96776 15.9528 3.83527 15.9213 3.71527 15.8609C3.59527 15.8005 3.49109 15.7127 3.4111 15.6048C3.29869 15.4505 3.2397 15.2636 3.2431 15.0728V12.5158H2.94312C2.33816 12.5158 1.75797 12.2755 1.3302 11.8477C0.90243 11.4199 0.662109 10.8398 0.662109 10.2348V2.7688C0.662109 2.16384 0.90243 1.58365 1.3302 1.15588C1.75797 0.728113 2.33816 0.487793 2.94312 0.487793H14.7941C15.3991 0.487793 15.9792 0.728113 16.407 1.15588C16.8348 1.58365 17.0751 2.16384 17.0751 2.7688L17.0801 10.2348ZM13.9401 2.20581H3.80811C3.62137 2.20581 3.43644 2.24256 3.26392 2.31403C3.09139 2.38549 2.93466 2.49021 2.80261 2.62225C2.67057 2.7543 2.56582 2.91109 2.49435 3.08362C2.42289 3.25614 2.38611 3.44107 2.38611 3.62781V9.37579C2.38611 9.56253 2.42289 9.74746 2.49435 9.91998C2.56582 10.0925 2.67057 10.2492 2.80261 10.3813C2.93466 10.5133 3.09139 10.6181 3.26392 10.6895C3.43644 10.761 3.62137 10.7978 3.80811 10.7978H4.10809C4.2209 10.7978 4.33261 10.82 4.43683 10.8632C4.54105 10.9063 4.63575 10.9696 4.71552 11.0494C4.79528 11.1291 4.85853 11.2238 4.9017 11.3281C4.94487 11.4323 4.9671 11.544 4.9671 11.6568V13.3058L7.8671 10.9858C8.01962 10.8641 8.20898 10.7978 8.40411 10.7978H13.9441C14.1308 10.7978 14.3158 10.761 14.4883 10.6895C14.6608 10.6181 14.8176 10.5133 14.9496 10.3813C15.0817 10.2492 15.1864 10.0925 15.2579 9.91998C15.3293 9.74746 15.3661 9.56253 15.3661 9.37579V3.62677C15.366 3.43978 15.329 3.25464 15.2572 3.08197C15.1854 2.9093 15.0803 2.75247 14.9478 2.62048C14.8154 2.48849 14.6582 2.38397 14.4853 2.31281C14.3124 2.24164 14.1271 2.20528 13.9401 2.20581Z" fill="black"/>
</svg>
