<svg width="22" height="22" viewBox="0 0 22 22" fill="none" xmlns="http://www.w3.org/2000/svg">
<path d="M11 0C8.08367 0.00344047 5.28778 1.16347 3.22562 3.22562C1.16347 5.28778 0.00344047 8.08367 0 11C0.00344047 13.9163 1.16347 16.7122 3.22562 18.7744C5.28778 20.8365 8.08367 21.9966 11 22C13.9163 21.9966 16.7122 20.8365 18.7744 18.7744C20.8365 16.7122 21.9966 13.9163 22 11C21.9966 8.08367 20.8365 5.28778 18.7744 3.22562C16.7122 1.16347 13.9163 0.00344047 11 0ZM11 21.544C8.20453 21.5408 5.52447 20.4289 3.54778 18.4522C1.57108 16.4755 0.459177 13.7955 0.456001 11C0.459177 8.20453 1.57108 5.52447 3.54778 3.54778C5.52447 1.57108 8.20453 0.459177 11 0.456001C13.7955 0.459177 16.4755 1.57108 18.4522 3.54778C20.4289 5.52447 21.5408 8.20453 21.544 11C21.5408 13.7955 20.4289 16.4755 18.4522 18.4522C16.4755 20.4289 13.7955 21.5408 11 21.544Z" fill="white"/>
<path d="M16.99 6.859C16.8316 6.43695 16.5828 6.05467 16.261 5.739C15.9452 5.41711 15.563 5.16798 15.141 5.009C14.6496 4.82508 14.1306 4.72568 13.606 4.715C12.932 4.684 12.716 4.677 10.999 4.677C9.282 4.677 9.06701 4.684 8.39201 4.715C7.86775 4.72573 7.34908 4.82514 6.858 5.009C6.43589 5.16772 6.05362 5.41688 5.73801 5.739C5.41622 6.05469 5.1674 6.43697 5.009 6.859C4.82488 7.35001 4.72546 7.86871 4.715 8.393C4.684 9.067 4.677 9.283 4.677 11C4.677 12.717 4.684 12.932 4.715 13.607C4.72541 14.1316 4.82482 14.6507 5.009 15.142C5.16769 15.5639 5.41647 15.9461 5.73801 16.262C6.0538 16.5839 6.43602 16.833 6.858 16.992C7.34908 17.1759 7.86775 17.2753 8.39201 17.286C9.06601 17.317 9.282 17.324 10.999 17.324C12.716 17.324 12.931 17.317 13.606 17.286C14.1306 17.2753 14.6496 17.1759 15.141 16.992C15.563 16.833 15.9452 16.5839 16.261 16.262C16.5825 15.9461 16.8313 15.5639 16.99 15.142C17.1742 14.6507 17.2736 14.1316 17.284 13.607C17.315 12.933 17.322 12.717 17.322 11C17.322 9.283 17.315 9.068 17.284 8.393C17.2735 7.86871 17.1741 7.35001 16.99 6.859ZM16.146 13.559C16.1412 13.9599 16.0675 14.3571 15.928 14.733C15.8267 15.0077 15.6651 15.2561 15.455 15.46C15.2511 15.67 15.0027 15.8317 14.728 15.933C14.3521 16.0725 13.9549 16.1462 13.554 16.151C12.887 16.181 12.687 16.188 10.999 16.188C9.311 16.188 9.111 16.182 8.444 16.151C8.04306 16.1462 7.64593 16.0725 7.27 15.933C6.99537 15.8316 6.74696 15.67 6.54301 15.46C6.33316 15.2559 6.17155 15.0075 6.07 14.733C5.93115 14.3569 5.85776 13.9599 5.853 13.559C5.823 12.892 5.816 12.692 5.816 11.004C5.816 9.316 5.822 9.116 5.853 8.449C5.85776 8.04815 5.93115 7.65107 6.07 7.275C6.17173 7.00055 6.33332 6.75221 6.54301 6.548C6.74708 6.33815 6.99547 6.17655 7.27 6.075C7.64601 5.93581 8.04309 5.86208 8.444 5.857C9.111 5.827 9.311 5.82 10.999 5.82C12.687 5.82 12.887 5.827 13.554 5.857C13.9549 5.86208 14.352 5.93581 14.728 6.075C15.0025 6.17655 15.2509 6.33815 15.455 6.548C15.6649 6.75204 15.8265 7.00043 15.928 7.275C16.0675 7.65092 16.1412 8.04806 16.146 8.449C16.176 9.116 16.183 9.316 16.183 11.004C16.183 12.692 16.177 12.885 16.146 13.555V13.559Z" fill="white"/>
<path d="M10.9991 8.21497C10.2606 8.21523 9.55234 8.50873 9.03011 9.03096C8.50788 9.55319 8.21438 10.2614 8.21411 11C8.21411 11.7386 8.50753 12.447 9.02982 12.9693C9.55211 13.4915 10.2605 13.785 10.9991 13.785C11.7377 13.785 12.4461 13.4915 12.9684 12.9693C13.4907 12.447 13.7841 11.7386 13.7841 11C13.7841 10.2613 13.4907 9.55296 12.9684 9.03067C12.4461 8.50838 11.7377 8.21497 10.9991 8.21497ZM10.9991 12.809C10.5196 12.809 10.0597 12.6185 9.72066 12.2794C9.3816 11.9403 9.19112 11.4805 9.19112 11.001C9.19112 10.5214 9.3816 10.0616 9.72066 9.72251C10.0597 9.38345 10.5196 9.19296 10.9991 9.19296C11.2365 9.19296 11.4716 9.23973 11.691 9.33059C11.9104 9.42145 12.1097 9.55462 12.2776 9.72251C12.4455 9.8904 12.5786 10.0897 12.6695 10.3091C12.7603 10.5284 12.8071 10.7635 12.8071 11.001C12.8068 11.4803 12.6162 11.9399 12.2772 12.2788C11.9382 12.6176 11.4785 12.809 10.9991 12.809Z" fill="white"/>
<path d="M14.171 7.17896C13.9984 7.17896 13.8328 7.24754 13.7107 7.36963C13.5886 7.49172 13.52 7.6573 13.52 7.82996C13.52 8.00261 13.5886 8.16819 13.7107 8.29028C13.8328 8.41236 13.9984 8.48095 14.171 8.48095C14.3437 8.48095 14.5093 8.41236 14.6313 8.29028C14.7534 8.16819 14.822 8.00261 14.822 7.82996C14.822 7.6573 14.7534 7.49172 14.6313 7.36963C14.5093 7.24754 14.3437 7.17896 14.171 7.17896Z" fill="white"/>
</svg>
