<svg xmlns="http://www.w3.org/2000/svg" width="143.108" height="14.514" data-name="그룹 144"><g fill="#fff" data-name="그룹 3"><path d="M138.683 0v.55h-1.539v3.078h-.546V.55h-1.537V0Z" data-name="패스 28"/><path d="M142.448 0h.66v3.628h-.54v-2.9l-1.513 1.8-1.5-1.8v2.9h-.554V0h.646l1.408 1.675Z" data-name="패스 29"/></g><g data-name="그룹 143"><g fill="#b4b4b4" data-name="그룹 4"><path d="M120.512 0h10.885v3.628h-10.885z" data-name="사각형 16"/><path d="M124.14 5.443h3.628v9.071h-3.628z" data-name="사각형 17"/></g><g fill="#fff" data-name="그룹 142"><path d="M114.724 3.629V0h-10.885v14.514h10.885v-3.628h-7.257V9.072h5.442V5.443h-5.442V3.629Z" data-name="패스 30"/><path d="M64.612 3.629V0H53.727v9.072h7.257v1.814h-7.257v3.628h10.885V5.443h-7.257V3.629Z" data-name="패스 31"/><path d="M77.688 0h-7.257v14.513h3.628V9.071h3.629v5.442h3.629V0Zm0 5.442h-3.629V3.628h3.629Z" data-name="패스 32"/><path d="M90.763 3.629h7.257V0H87.135v14.514H98.02V5.443h-3.628v5.443h-3.628Z" data-name="패스 33"/><path d="M47.908 3.629V0H37.023v9.072h7.257v1.814h-7.257v3.628h10.885V5.443h-7.257V3.629Z" data-name="패스 34"/><path d="M31.204 3.629V0H20.319v14.514h10.885v-3.628h-7.257V9.072h5.443V5.443h-5.443V3.629Z" data-name="패스 35"/><path d="M10.885 0 7.257 3.629 3.629 0H.001v14.514h3.628V5.443l3.628 3.628 3.628-3.628v9.071h3.629V0Z" data-name="패스 36"/></g></g></svg>