<svg width="22" height="22" viewBox="0 0 22 22" fill="none" xmlns="http://www.w3.org/2000/svg">
<mask id="mask0_137_1805" style="mask-type:luminance" maskUnits="userSpaceOnUse" x="0" y="0" width="22" height="22">
<path d="M22 0H0V22H22V0Z" fill="white"/>
</mask>
<g mask="url(#mask0_137_1805)">
<path d="M7.48391 17.815C7.05548 17.8162 6.63106 17.7324 6.23523 17.5685C5.83939 17.4046 5.48002 17.1637 5.17791 16.86L4.54191 16.227C3.93058 15.6154 3.58716 14.7861 3.58716 13.9215C3.58716 13.0568 3.93058 12.2275 4.54191 11.616L7.44191 8.71596C8.05382 8.10537 8.88296 7.76245 9.74741 7.76245C10.6119 7.76245 11.441 8.10537 12.0529 8.71596L12.6199 9.28296C12.7946 9.46604 12.8908 9.71022 12.8879 9.96328C12.8849 10.2163 12.7831 10.4582 12.6041 10.6372C12.4252 10.8161 12.1833 10.918 11.9302 10.9209C11.6772 10.9239 11.433 10.8277 11.2499 10.653L10.6829 10.086C10.4346 9.83864 10.0984 9.69979 9.74791 9.69979C9.39743 9.69979 9.06124 9.83864 8.81291 10.086L5.91291 12.986C5.66535 13.2342 5.52633 13.5704 5.52633 13.921C5.52633 14.2715 5.66535 14.6078 5.91291 14.856L6.54891 15.492C6.79711 15.7395 7.13335 15.8785 7.48391 15.8785C7.83446 15.8785 8.17071 15.7395 8.41891 15.492L9.05991 14.851C9.14908 14.7575 9.25602 14.6829 9.37446 14.6314C9.4929 14.5799 9.62044 14.5525 9.74959 14.551C9.87873 14.5495 10.0069 14.5739 10.1265 14.6226C10.2461 14.6713 10.3548 14.7435 10.4461 14.8348C10.5374 14.9261 10.6096 15.0348 10.6583 15.1544C10.707 15.274 10.7313 15.4021 10.7298 15.5313C10.7283 15.6604 10.701 15.788 10.6495 15.9064C10.598 16.0248 10.5233 16.1318 10.4299 16.221L9.78891 16.862C9.48673 17.1657 9.12734 17.4064 8.73153 17.5703C8.33571 17.7343 7.91132 17.8181 7.48291 17.817" fill="white"/>
<path d="M12.2559 14.241C11.8277 14.2421 11.4034 14.1583 11.0078 13.9944C10.6121 13.8304 10.2529 13.5897 9.95094 13.286L9.38394 12.719C9.20214 12.5373 9.09995 12.2909 9.09985 12.0339C9.09976 11.7768 9.20177 11.5303 9.38344 11.3485C9.56512 11.1667 9.81157 11.0645 10.0686 11.0644C10.3256 11.0643 10.5721 11.1663 10.7539 11.348L11.3209 11.915C11.569 12.1628 11.9053 12.302 12.2559 12.302C12.6066 12.302 12.9429 12.1628 13.1909 11.915L16.0909 9.01501C16.3385 8.76681 16.4775 8.43057 16.4775 8.08001C16.4775 7.72946 16.3385 7.39321 16.0909 7.14501L15.4549 6.50901C15.3322 6.38619 15.1864 6.28876 15.026 6.22229C14.8656 6.15582 14.6936 6.1216 14.5199 6.1216C14.3463 6.1216 14.1743 6.15582 14.0139 6.22229C13.8535 6.28876 13.7077 6.38619 13.5849 6.50901L12.9439 7.15001C12.7609 7.32474 12.5167 7.42092 12.2636 7.41796C12.0106 7.41501 11.7687 7.31317 11.5897 7.13422C11.4108 6.95526 11.3089 6.7134 11.306 6.46033C11.303 6.20727 11.3992 5.96309 11.5739 5.78001L12.2149 5.13901C12.5177 4.83605 12.8772 4.5957 13.2729 4.43173C13.6685 4.26775 14.0926 4.18335 14.5209 4.18335C14.9493 4.18335 15.3734 4.26775 15.769 4.43173C16.1647 4.5957 16.5242 4.83605 16.8269 5.13901L17.4629 5.77501C18.0736 6.3871 18.4165 7.21641 18.4165 8.08101C18.4165 8.94562 18.0736 9.77493 17.4629 10.387L14.5629 13.287C14.2608 13.5908 13.9014 13.8316 13.5056 13.9955C13.1098 14.1594 12.6854 14.2432 12.2569 14.242" fill="white"/>
<path d="M11 0C8.82441 0 6.69767 0.645139 4.88873 1.85383C3.07979 3.06253 1.66989 4.78049 0.83733 6.79048C0.00476617 8.80047 -0.213071 11.0122 0.211367 13.146C0.635804 15.2798 1.68345 17.2398 3.22183 18.7782C4.76021 20.3166 6.72022 21.3642 8.85401 21.7886C10.9878 22.2131 13.1995 21.9952 15.2095 21.1627C17.2195 20.3301 18.9375 18.9202 20.1462 17.1113C21.3549 15.3023 22 13.1756 22 11C21.9966 8.08367 20.8365 5.28778 18.7744 3.22563C16.7122 1.16347 13.9163 0.00344047 11 0ZM11 21.544C8.9146 21.544 6.87602 20.9256 5.14207 19.767C3.40812 18.6084 2.05667 16.9617 1.25862 15.035C0.460569 13.1083 0.251762 10.9883 0.658605 8.94297C1.06545 6.89763 2.06967 5.01887 3.54427 3.54427C5.01888 2.06966 6.89764 1.06544 8.94297 0.6586C10.9883 0.251757 13.1084 0.460564 15.035 1.25861C16.9617 2.05666 18.6084 3.40812 19.767 5.14207C20.9256 6.87602 21.544 8.91459 21.544 11C21.5406 13.7954 20.4286 16.4753 18.4519 18.4519C16.4753 20.4286 13.7954 21.5406 11 21.544Z" fill="white"/>
</g>
</svg>
