<svg xmlns="http://www.w3.org/2000/svg" width="7.352" height="69.796" data-name="그룹 9"><path fill="#fff" d="m.093 48.475 2.75-.685-2.75-.686v-1.4l4.053 1.393.072.029h3v1.32h-3l-.077.029L.088 49.87Z" data-name="패스 37"/><path fill="#fff" d="M5.809 41.971q1.537 0 1.542 1.714t-1.542 1.71H1.537q-1.538 0-1.537-1.71t1.537-1.714Zm-4.272 1.323a.351.351 0 0 0-.4.387v.008c0 .256.134.384.4.384h4.272c.268 0 .4-.128.4-.389a.351.351 0 0 0-.4-.391Z" data-name="패스 38"/><path fill="#fff" d="M5.811 37.841c1.023 0 1.539.57 1.541 1.714s-.513 1.708-1.541 1.708h-5.7v-1.321h5.7a.348.348 0 0 0 .4-.387.351.351 0 0 0-.4-.394h-5.7v-1.32Z" data-name="패스 39"/><path fill="#fff" d="M.093 37.052v-1.733q0-1.594 1.542-1.6h1.052a1.193 1.193 0 0 1 1.253.866l3.282-1.273v1.439l-3.067.9v.075h3.067v1.319Zm1.137-1.319h1.856v-.158a1.193 1.193 0 0 0-.02-.279.363.363 0 0 0-.38-.25H1.634c-.271 0-.4.131-.4.39Z" data-name="패스 40"/><path fill="#fff" d="m4.819 28.733-4.726-1.22v-1.306h7.129v1.274H3.94l3.282.777v.928l-3.3.8h3.3v1.286H.093v-1.306Z" data-name="패스 41"/><path fill="#fff" d="M.093 25.485v-3.109H1.23v1.79h1.856v-1.54h1.143v1.54h1.856v-1.79h1.137v3.109Z" data-name="패스 42"/><path fill="#fff" d="M1.54 21.851q-1.538 0-1.537-1.708T1.54 18.43h.821v1.32H1.54a.352.352 0 0 0-.4.389v.007c0 .258.134.386.4.386h.63q.439 0 1.094-1.017a1.978 1.978 0 0 1 1.667-1.085h.882q1.542 0 1.542 1.709t-1.542 1.712h-.822v-1.319h.822a.352.352 0 0 0 .4-.393.35.35 0 0 0-.4-.389h-.8q-.473 0-1.128 1.014a2 2 0 0 1-1.692 1.087Z" data-name="패스 43"/><path fill="#fff" d="M1.54 17.842q-1.538 0-1.537-1.711t1.537-1.713h.821v1.319H1.54a.353.353 0 0 0-.4.389v.01c0 .256.134.384.4.384h.63q.439 0 1.094-1.016a1.975 1.975 0 0 1 1.667-1.086h.882c1.028 0 1.542.572 1.542 1.708s-.518 1.716-1.542 1.716h-.822V16.52h.822a.352.352 0 0 0 .4-.394.35.35 0 0 0-.4-.389h-.8c-.315 0-.692.34-1.128 1.016a2.007 2.007 0 0 1-1.692 1.089Z" data-name="패스 44"/><path fill="#fff" d="m4.664 10.354 2.558-.375v1.333l-1.481.218v.971l1.481.221v1.33l-2.545-.378-4.584-.806v-1.712ZM4.6 11.7l-2.157.317 2.157.317Z" data-name="패스 45"/><path fill="#fff" d="M3.103 7.814V6.166H5.81q1.537 0 1.542 1.711T5.81 9.587H1.538Q0 9.587.001 7.877t1.537-1.711h.821v1.319h-.821a.352.352 0 0 0-.4.388v.009c0 .255.134.384.4.384H5.81a.35.35 0 0 0 .4-.389.351.351 0 0 0-.4-.392H4.244v.329Z" data-name="패스 46"/><path fill="#fff" d="M.093 5.416V2.308H1.23v1.789h1.856v-1.54h1.143v1.54h1.856V2.308h1.137v3.108Z" data-name="패스 47"/><path fill="#fff" d="M4.819 67.254.093 66.032v-1.3h7.129v1.271H3.94l3.282.777v.928l-3.3.8h3.3v1.286H.093v-1.305Z" data-name="패스 48"/><path fill="#fff" d="m4.664 60.561 2.558-.376v1.332l-1.481.218v.973l1.481.223v1.327l-2.545-.375-4.584-.8v-1.716ZM4.6 61.906l-2.157.317 2.157.316Z" data-name="패스 49"/><path fill="#fff" d="M.093 59.713V57.98q0-1.6 1.542-1.6h1.052a1.191 1.191 0 0 1 1.253.868l3.282-1.275v1.441l-3.067.9v.071h3.067v1.321Zm1.137-1.321h1.856v-.159a1.155 1.155 0 0 0-.02-.279.361.361 0 0 0-.38-.247H1.634c-.271 0-.4.128-.4.389Z" data-name="패스 50"/><path fill="#fff" d="m3.652 53.308 3.565-1.514v1.412l-2.655 1.019h2.655v1.321H.088v-1.321h2.654L.088 53.206v-1.412Z" data-name="패스 51"/><path fill="#fff" d="M5.745 1.485V0h1.477v1.485Z" data-name="패스 52"/></svg>