<svg width="24" height="23" viewBox="0 0 24 23" fill="none" xmlns="http://www.w3.org/2000/svg">
<path d="M3.61905 2.70416C1.94079 4.38632 0.998291 6.66551 0.998291 9.04169C0.998291 11.4179 1.94079 13.6971 3.61905 15.3792C5.30108 17.0577 7.58031 18.0004 9.95657 18.0004C12.3328 18.0004 14.612 17.0577 16.2941 15.3792C17.9726 13.6972 18.9153 11.4179 18.9153 9.04169C18.9153 6.66543 17.9726 4.38619 16.2941 2.70416C14.612 1.02566 12.3328 0.0830078 9.95657 0.0830078C7.58031 0.0830078 5.30108 1.02566 3.61905 2.70416ZM14.8851 13.9702C13.5769 15.2754 11.8045 16.0083 9.95657 16.0083C8.10868 16.0083 6.33621 15.2754 5.02805 13.9702C3.72314 12.6619 2.99036 10.8895 2.99036 9.04169C2.99036 7.19387 3.72314 5.42151 5.02805 4.11322C6.33621 2.80807 8.10868 2.07507 9.95657 2.07507C11.8045 2.07507 13.5769 2.80807 14.8851 4.11322C16.1902 5.42138 16.9232 7.19379 16.9232 9.04169C16.9232 10.8896 16.1902 12.6621 14.8851 13.9702Z" fill="white"/>
<path d="M17.2461 16.3298C17.0601 16.5172 16.9558 16.7704 16.9558 17.0344C16.9558 17.2983 17.0601 17.5515 17.2461 17.7388L21.4581 21.9508C21.6454 22.1368 21.8987 22.2412 22.1626 22.2412C22.4265 22.2412 22.6798 22.1368 22.8671 21.9508C23.053 21.7635 23.1574 21.5103 23.1574 21.2463C23.1574 20.9824 23.053 20.7291 22.8671 20.5418L18.6551 16.3289C18.4676 16.143 18.2144 16.0389 17.9504 16.0391C17.6865 16.0393 17.4333 16.1438 17.2461 16.3298Z" fill="white"/>
</svg>
