<svg width="21" height="16" viewBox="0 0 21 16" fill="none" xmlns="http://www.w3.org/2000/svg">
<path d="M17.3162 2.08484C16.0271 1.49485 14.6662 1.07629 13.2682 0.839844C13.0768 1.18178 12.9035 1.53361 12.7492 1.89384C11.26 1.66941 9.74551 1.66941 8.25625 1.89384C8.10254 1.53368 7.92997 1.18186 7.73925 0.839844C6.34043 1.07857 4.97864 1.49844 3.68825 2.08884C1.40239 5.32402 0.368376 9.27886 0.778249 13.2188C2.27862 14.3272 3.95796 15.1701 5.74325 15.7108C6.14517 15.1701 6.50077 14.5964 6.80625 13.9958C6.22585 13.7788 5.66569 13.5111 5.13225 13.1958C5.27225 13.0958 5.41025 12.9888 5.54325 12.8868C7.09603 13.6171 8.79082 13.9957 10.5067 13.9957C12.2227 13.9957 13.9175 13.6171 15.4702 12.8868C15.6042 12.9968 15.7422 13.1018 15.8812 13.1958C15.3464 13.5111 14.7849 13.7788 14.2032 13.9958C14.5084 14.5959 14.864 15.169 15.2662 15.7088C17.0531 15.1701 18.7337 14.3274 20.2342 13.2178C20.6434 9.27581 19.6064 5.31939 17.3162 2.08484ZM7.24625 10.9778C6.75342 10.9494 6.29163 10.728 5.9609 10.3615C5.63017 9.99501 5.45713 9.513 5.47925 9.01984C5.46548 8.77477 5.50024 8.52938 5.58151 8.29776C5.66278 8.06614 5.78898 7.85285 5.95286 7.6701C6.11674 7.48736 6.31509 7.33877 6.53652 7.23284C6.75796 7.12692 6.99812 7.06575 7.24325 7.05284C7.48911 7.06419 7.73028 7.12428 7.95272 7.22961C8.17517 7.33495 8.37448 7.48343 8.53906 7.66644C8.70364 7.84944 8.83023 8.06332 8.91146 8.29566C8.99269 8.528 9.02695 8.77416 9.01225 9.01984C9.03517 9.51304 8.86254 9.99535 8.53186 10.362C8.20118 10.7286 7.73918 10.9499 7.24625 10.9778ZM13.7652 10.9778C13.2716 10.9509 12.8086 10.7301 12.4771 10.3633C12.1455 9.99658 11.9724 9.51369 11.9952 9.01984C11.9815 8.77429 12.0165 8.52843 12.0981 8.29644C12.1797 8.06444 12.3065 7.85089 12.471 7.66807C12.6355 7.48524 12.8345 7.33677 13.0567 7.23118C13.2788 7.1256 13.5196 7.06499 13.7652 7.05284C14.0109 7.06417 14.2519 7.12429 14.474 7.22968C14.6962 7.33508 14.8952 7.48365 15.0594 7.66673C15.2236 7.84981 15.3497 8.06374 15.4304 8.29605C15.511 8.52836 15.5446 8.77441 15.5292 9.01984C15.5524 9.51278 15.3802 9.99495 15.0499 10.3616C14.7196 10.7282 14.2579 10.9497 13.7652 10.9778Z" fill="white"/>
</svg>
