<svg width="22" height="22" viewBox="0 0 22 22" fill="none" xmlns="http://www.w3.org/2000/svg">
<path d="M11 0C8.08367 0.00344047 5.28777 1.16348 3.22562 3.22563C1.16346 5.28779 0.00344047 8.08367 0 11C0.00317634 13.9164 1.16311 16.7125 3.22533 18.7747C5.28754 20.8369 8.08359 21.9968 11 22C13.9163 21.9966 16.7122 20.8365 18.7744 18.7744C20.8365 16.7122 21.9966 13.9163 22 11C21.9966 8.08367 20.8365 5.28779 18.7744 3.22563C16.7122 1.16348 13.9163 0.00344047 11 0ZM11 21.545C8.20453 21.5418 5.52446 20.4299 3.54776 18.4532C1.57106 16.4765 0.45917 13.7965 0.455994 11.001C0.459169 8.20545 1.57103 5.52527 3.5477 3.54842C5.52437 1.57156 8.20444 0.45945 11 0.456009C13.7956 0.45945 16.4756 1.57156 18.4523 3.54842C20.429 5.52527 21.5408 8.20545 21.544 11.001C21.5408 13.7965 20.4289 16.4765 18.4522 18.4532C16.4755 20.4299 13.7955 21.5418 11 21.545Z" fill="white"/>
<path d="M16.828 7.395C16.3218 7.64983 15.78 7.82684 15.221 7.92001C14.7108 7.47151 14.0523 7.22816 13.373 7.23701C13.0238 7.20225 12.6713 7.24879 12.343 7.37299C12.0148 7.49719 11.7197 7.69567 11.481 7.95291C11.2423 8.21015 11.0663 8.51916 10.9669 8.85574C10.8675 9.19232 10.8473 9.54734 10.908 9.89301C8.94335 9.83745 7.07535 9.02823 5.69102 7.63301C5.53341 7.86877 5.42817 8.13557 5.3824 8.41545C5.33663 8.69533 5.35139 8.98177 5.42569 9.25546C5.49999 9.52915 5.6321 9.78372 5.81311 10.002C5.99412 10.2203 6.21982 10.3973 6.47502 10.521C6.07801 10.5114 5.68738 10.4191 5.32803 10.25C5.3548 10.7913 5.57404 11.3051 5.94626 11.699C6.31847 12.0928 6.81916 12.3407 7.35803 12.398C6.98308 12.4847 6.5948 12.4973 6.21503 12.435C6.41616 12.8911 6.74823 13.2771 7.16911 13.5442C7.58999 13.8113 8.08072 13.9473 8.57903 13.935C7.47155 14.659 6.14751 14.977 4.83203 14.835C6.02334 15.4794 7.35762 15.8137 8.71202 15.807C13.412 15.807 16.067 12.415 15.912 9.37302C16.396 9.07738 16.8236 8.69815 17.175 8.25301C16.7076 8.4291 16.2191 8.5434 15.722 8.593C16.2266 8.34481 16.6209 7.91779 16.828 7.395Z" fill="white"/>
</svg>
