<svg width="22" height="22" viewBox="0 0 22 22" fill="none" xmlns="http://www.w3.org/2000/svg">
<path d="M11 0C8.08367 0.00344047 5.28777 1.16348 3.22562 3.22563C1.16346 5.28779 0.00344047 8.08367 0 11C0.00344047 13.9163 1.16346 16.7122 3.22562 18.7744C5.28777 20.8365 8.08367 21.9966 11 22C13.9164 21.9968 16.7124 20.8369 18.7747 18.7747C20.8369 16.7125 21.9968 13.9164 22 11C21.9965 8.08367 20.8365 5.28779 18.7744 3.22563C16.7122 1.16348 13.9163 0.00344047 11 0ZM11 21.544C8.20436 21.5411 5.52403 20.4293 3.54712 18.4526C1.57021 16.4759 0.458163 13.7956 0.454987 11C0.458163 8.20427 1.57018 5.52396 3.54706 3.54707C5.52394 1.57019 8.20427 0.458178 11 0.455002C13.7956 0.458443 16.4756 1.57057 18.4523 3.54742C20.4289 5.52428 21.5408 8.20444 21.544 11C21.5408 13.7955 20.4289 16.4755 18.4522 18.4522C16.4755 20.4289 13.7955 21.5408 11 21.544Z" fill="white"/>
<path d="M9.69598 10.931C9.89667 10.8361 10.0762 10.7017 10.224 10.536C10.449 10.2451 10.5628 9.88339 10.545 9.51602C10.5549 9.13872 10.4435 8.76821 10.227 8.45903C10.0079 8.20231 9.73079 8.00147 9.41864 7.87314C9.10649 7.7448 8.76828 7.69265 8.43198 7.72102H5.08398V14.645H8.20499C8.53368 14.6474 8.86175 14.6159 9.18399 14.551C9.46808 14.4962 9.73588 14.3771 9.96698 14.203C10.1637 14.0544 10.33 13.8694 10.457 13.658C10.6637 13.327 10.7707 12.9433 10.765 12.553C10.776 12.1956 10.6821 11.8428 10.495 11.538C10.3038 11.2523 10.0225 11.0386 9.69598 10.931ZM6.46497 8.92503H7.97198C8.249 8.91715 8.52549 8.95362 8.79099 9.03303C8.91339 9.08547 9.01564 9.17591 9.08264 9.291C9.14964 9.40608 9.1778 9.53969 9.16296 9.67203C9.17536 9.78954 9.1557 9.90822 9.10605 10.0155C9.05639 10.1227 8.97862 10.2145 8.88098 10.281C8.65709 10.4046 8.40347 10.4641 8.14798 10.453H6.46399L6.46497 8.92503ZM8.84897 13.325C8.62742 13.4166 8.38845 13.4582 8.14899 13.447H6.46698V11.601H8.16699C8.40329 11.5928 8.63875 11.633 8.85898 11.719C9.0006 11.7814 9.11921 11.8864 9.19827 12.0194C9.27733 12.1524 9.3129 12.3068 9.29999 12.461C9.31865 12.6335 9.28551 12.8075 9.20483 12.9611C9.12415 13.1146 8.99958 13.2406 8.84698 13.323L8.84897 13.325Z" fill="white"/>
<path d="M16.4839 10.496C16.2672 10.1641 15.9602 9.90115 15.5989 9.73801C15.2204 9.57394 14.8114 9.49213 14.3989 9.498C14.0612 9.48472 13.7244 9.54089 13.4093 9.66301C13.0942 9.78513 12.8075 9.97063 12.5669 10.208C12.3188 10.4837 12.1285 10.8064 12.0074 11.157C11.8863 11.5076 11.8369 11.8789 11.8619 12.249C11.8264 12.6279 11.8784 13.01 12.014 13.3656C12.1496 13.7212 12.3651 14.0409 12.6439 14.3C13.1513 14.7149 13.7886 14.938 14.4439 14.93C14.7999 14.9509 15.1562 14.895 15.4887 14.7661C15.8211 14.6372 16.122 14.4383 16.3709 14.183C16.6326 13.936 16.8079 13.6113 16.8709 13.257H15.5029C15.4356 13.3917 15.3417 13.5114 15.2269 13.609C15.015 13.7732 14.7517 13.8568 14.4839 13.845C14.2245 13.8525 13.9684 13.7855 13.7459 13.652C13.5711 13.5332 13.4299 13.3713 13.336 13.1819C13.2421 12.9925 13.1987 12.7821 13.2099 12.571H16.9409C16.9526 12.2317 16.9379 11.892 16.8969 11.555C16.8419 11.1751 16.7006 10.8129 16.4839 10.496ZM13.2389 11.688C13.27 11.3925 13.3947 11.1146 13.5949 10.895C13.701 10.7939 13.8268 10.7158 13.9645 10.6656C14.1021 10.6153 14.2487 10.594 14.3949 10.603C14.6849 10.594 14.968 10.6923 15.1899 10.879C15.3014 10.9827 15.3906 11.1079 15.4519 11.2472C15.5133 11.3865 15.5456 11.5368 15.5469 11.689L13.2389 11.688Z" fill="white"/>
<path d="M15.759 7.86206H12.749V8.56106H15.759V7.86206Z" fill="white"/>
</svg>
