<svg width="22" height="22" viewBox="0 0 22 22" fill="none" xmlns="http://www.w3.org/2000/svg">
<path d="M11 0C8.08359 0.00317634 5.28754 1.16313 3.22533 3.22534C1.16311 5.28755 0.00317634 8.08359 0 11C0.00344047 13.9163 1.16346 16.7122 3.22562 18.7744C5.28777 20.8365 8.08367 21.9966 11 22C13.9163 21.9966 16.7122 20.8365 18.7744 18.7744C20.8365 16.7122 21.9966 13.9163 22 11C21.9968 8.08359 20.8369 5.28755 18.7747 3.22534C16.7124 1.16313 13.9164 0.00317634 11 0ZM11 21.544C8.20427 21.5408 5.52394 20.4288 3.54706 18.4519C1.57018 16.4751 0.458178 13.7948 0.455002 10.999C0.458443 8.20346 1.57057 5.52339 3.54742 3.54672C5.52428 1.57006 8.20444 0.458193 11 0.455017C13.7951 0.458987 16.4746 1.57136 18.4506 3.54819C20.4267 5.52501 21.5381 8.20488 21.541 11C21.5378 13.7949 20.4263 16.4746 18.4503 18.4512C16.4742 20.4278 13.7949 21.54 11 21.544Z" fill="white"/>
<path d="M15.6119 6.147C14.7887 6.08583 13.9702 6.31634 13.3 6.79812C12.6297 7.2799 12.1503 7.98221 11.9459 8.78198C12.2537 8.66357 12.5802 8.60126 12.9099 8.59799C13.5719 8.59799 13.8639 8.91866 13.7859 9.55999C13.6313 10.186 13.3312 10.7667 12.9099 11.255C12.3639 11.997 11.9549 12.368 11.6829 12.368C11.3309 12.368 11.0096 11.796 10.7189 10.652C10.6203 10.3187 10.4446 9.46131 10.1919 8.07998C9.95792 6.80131 9.3346 6.20399 8.32193 6.28799C7.6063 6.46151 6.94402 6.80758 6.39293 7.29598C5.76893 7.78332 5.13559 8.27032 4.49292 8.75698L5.10593 9.43697C5.42061 9.21502 5.76411 9.03705 6.12692 8.90798C6.57426 8.90798 6.99225 9.51233 7.38092 10.721L8.43193 14.044C8.95593 15.252 9.59759 15.856 10.3569 15.856C11.5823 15.856 13.0796 14.8643 14.8489 12.881C16.5603 10.9816 17.4453 9.48567 17.5039 8.393C17.5799 6.92967 16.9493 6.181 15.6119 6.147Z" fill="white"/>
</svg>
