<svg width="22" height="22" viewBox="0 0 22 22" fill="none" xmlns="http://www.w3.org/2000/svg">
<path d="M11 0C8.08359 0.00317634 5.28754 1.16313 3.22533 3.22534C1.16311 5.28755 0.00317634 8.08359 0 11C0.00317634 13.9164 1.16311 16.7125 3.22533 18.7747C5.28754 20.8369 8.08359 21.9968 11 22C13.9164 21.9968 16.7124 20.8369 18.7747 18.7747C20.8369 16.7125 21.9968 13.9164 22 11C21.9966 8.08367 20.8365 5.28779 18.7744 3.22563C16.7122 1.16348 13.9163 0.00344047 11 0ZM11 21.544C8.20453 21.5408 5.52446 20.4289 3.54776 18.4522C1.57106 16.4755 0.45917 13.7955 0.455994 11C0.45917 8.20453 1.57106 5.52447 3.54776 3.54778C5.52446 1.57108 8.20453 0.459185 11 0.456009C13.7955 0.459185 16.4755 1.57108 18.4522 3.54778C20.4289 5.52447 21.5408 8.20453 21.544 11C21.5408 13.7955 20.4289 16.4755 18.4522 18.4522C16.4755 20.4289 13.7955 21.5408 11 21.544Z" fill="white"/>
<path d="M11.2749 4.22701C10.6363 4.22116 10.0031 4.34333 9.41253 4.58628C8.82198 4.82922 8.2861 5.18804 7.83653 5.64153C7.38695 6.09502 7.0328 6.63399 6.79498 7.22663C6.55716 7.81926 6.44049 8.45354 6.45187 9.09201C6.38328 9.66689 6.47626 10.2495 6.72038 10.7745C6.96449 11.2994 7.35008 11.746 7.83387 12.064C7.98787 12.137 8.12687 12.064 8.17187 11.87C8.20287 11.734 8.27188 11.389 8.30888 11.245C8.3351 11.1708 8.33961 11.0907 8.32189 11.014C8.30418 10.9373 8.26498 10.8672 8.20887 10.812C7.89638 10.3663 7.73994 9.82983 7.76388 9.28601C7.72786 8.82112 7.78615 8.35374 7.93525 7.91194C8.08435 7.47014 8.32119 7.06304 8.63154 6.71504C8.9419 6.36705 9.31937 6.08535 9.7413 5.88687C10.1632 5.68839 10.6209 5.57721 11.0869 5.56001C11.4748 5.54464 11.8615 5.61268 12.2209 5.75954C12.5803 5.9064 12.9041 6.12865 13.1702 6.4113C13.4364 6.69396 13.6388 7.03044 13.7638 7.39801C13.8888 7.76558 13.9335 8.15569 13.8949 8.54201C13.8949 10.785 13.0339 12.679 11.7559 12.679C11.5786 12.6711 11.4055 12.6229 11.2498 12.538C11.094 12.4531 10.9596 12.3338 10.8569 12.1892C10.7542 12.0445 10.6859 11.8783 10.6571 11.7033C10.6283 11.5282 10.6399 11.3489 10.6909 11.179C10.96 10.2751 11.1605 9.35212 11.2909 8.41802C11.2909 7.78102 10.9909 7.25002 10.3809 7.25002C9.65887 7.25002 9.08088 8.11101 9.08088 9.26401C9.07522 9.68448 9.14813 10.1023 9.29588 10.496C9.29588 10.496 8.55788 14.104 8.42788 14.736C8.27507 15.7153 8.26832 16.7118 8.40788 17.693C8.40837 17.7116 8.41478 17.7295 8.42619 17.7442C8.4376 17.7588 8.45341 17.7694 8.47129 17.7745C8.48918 17.7795 8.5082 17.7787 8.52558 17.7721C8.54296 17.7656 8.55779 17.7536 8.56788 17.738C9.10997 16.9611 9.52138 16.1007 9.78587 15.191C9.86887 14.845 10.2609 13.053 10.2609 13.053C10.4235 13.3475 10.6623 13.5928 10.9522 13.7635C11.2421 13.9341 11.5725 14.0237 11.9089 14.023C14.0789 14.023 15.5499 11.743 15.5499 8.69101C15.5687 8.11557 15.4724 7.54218 15.2666 7.00447C15.0607 6.46677 14.7496 5.97558 14.3514 5.55976C13.9532 5.14393 13.4759 4.81184 12.9476 4.58298C12.4193 4.35412 11.8506 4.23309 11.2749 4.22701Z" fill="white"/>
</svg>
